<mxfile host="app.diagrams.net" modified="2022-02-17T20:45:56.480Z" agent="5.0 (X11; Linux x86_64) AppleWebKit/537.36 (KHTML, like Gecko) Chrome/98.0.4758.80 Safari/537.36" etag="xddFts6YeC1yZXHwlKxj" version="15.7.4" type="github">
  <diagram name="Page-1" id="74e2e168-ea6b-b213-b513-2b3c1d86103e">
    <mxGraphModel dx="945" dy="616" grid="1" gridSize="10" guides="1" tooltips="1" connect="1" arrows="1" fold="1" page="1" pageScale="1" pageWidth="1100" pageHeight="850" background="none" math="0" shadow="0">
      <root>
        <mxCell id="0" />
        <mxCell id="1" parent="0" />
        <mxCell id="gGMn3UYS-EvrmnC3Wc0F-29" style="edgeStyle=orthogonalEdgeStyle;rounded=0;orthogonalLoop=1;jettySize=auto;html=1;entryX=0.5;entryY=0;entryDx=0;entryDy=0;" edge="1" parent="1" source="gGMn3UYS-EvrmnC3Wc0F-27" target="gGMn3UYS-EvrmnC3Wc0F-8">
          <mxGeometry relative="1" as="geometry" />
        </mxCell>
        <mxCell id="gGMn3UYS-EvrmnC3Wc0F-27" value="" style="rounded=0;whiteSpace=wrap;html=1;fillColor=#dae8fc;strokeColor=#6c8ebf;" vertex="1" parent="1">
          <mxGeometry x="280" y="185" width="210" height="60" as="geometry" />
        </mxCell>
        <mxCell id="gGMn3UYS-EvrmnC3Wc0F-3" value="" style="edgeStyle=orthogonalEdgeStyle;rounded=0;orthogonalLoop=1;jettySize=auto;html=1;" edge="1" parent="1" source="gGMn3UYS-EvrmnC3Wc0F-1" target="gGMn3UYS-EvrmnC3Wc0F-2">
          <mxGeometry relative="1" as="geometry" />
        </mxCell>
        <mxCell id="gGMn3UYS-EvrmnC3Wc0F-1" value="HelloID - Indienst formulier&lt;br&gt;invoer door TL aanvraag&lt;br&gt;Rol/Hardware/Applicaties/Toegang&lt;br&gt;+&amp;nbsp;uniek id" style="rounded=0;whiteSpace=wrap;html=1;fillColor=#dae8fc;strokeColor=#6c8ebf;" vertex="1" parent="1">
          <mxGeometry x="305" y="170" width="210" height="60" as="geometry" />
        </mxCell>
        <mxCell id="gGMn3UYS-EvrmnC3Wc0F-2" value="Topdesk ticket wordt aangemaakt.&lt;br&gt;+ uniek id" style="rounded=0;whiteSpace=wrap;html=1;fillColor=#f8cecc;strokeColor=#b85450;" vertex="1" parent="1">
          <mxGeometry x="610" y="170" width="160" height="60" as="geometry" />
        </mxCell>
        <mxCell id="gGMn3UYS-EvrmnC3Wc0F-11" value="" style="edgeStyle=orthogonalEdgeStyle;rounded=0;orthogonalLoop=1;jettySize=auto;html=1;" edge="1" parent="1" source="gGMn3UYS-EvrmnC3Wc0F-8" target="gGMn3UYS-EvrmnC3Wc0F-10">
          <mxGeometry relative="1" as="geometry" />
        </mxCell>
        <mxCell id="gGMn3UYS-EvrmnC3Wc0F-8" value="Gegevens gaan naar HR&lt;br&gt;invoer in Workforce &lt;b&gt;+&amp;nbsp;&lt;br&gt;uniek id*&lt;/b&gt;" style="rounded=0;whiteSpace=wrap;html=1;fillColor=#d5e8d4;strokeColor=#82b366;" vertex="1" parent="1">
          <mxGeometry x="305" y="320" width="160" height="60" as="geometry" />
        </mxCell>
        <mxCell id="gGMn3UYS-EvrmnC3Wc0F-13" value="" style="edgeStyle=orthogonalEdgeStyle;rounded=0;orthogonalLoop=1;jettySize=auto;html=1;" edge="1" parent="1" source="gGMn3UYS-EvrmnC3Wc0F-10" target="gGMn3UYS-EvrmnC3Wc0F-12">
          <mxGeometry relative="1" as="geometry" />
        </mxCell>
        <mxCell id="gGMn3UYS-EvrmnC3Wc0F-14" style="edgeStyle=orthogonalEdgeStyle;rounded=0;orthogonalLoop=1;jettySize=auto;html=1;entryX=0.5;entryY=1;entryDx=0;entryDy=0;" edge="1" parent="1" source="gGMn3UYS-EvrmnC3Wc0F-10" target="gGMn3UYS-EvrmnC3Wc0F-2">
          <mxGeometry relative="1" as="geometry" />
        </mxCell>
        <mxCell id="gGMn3UYS-EvrmnC3Wc0F-24" style="edgeStyle=orthogonalEdgeStyle;rounded=0;orthogonalLoop=1;jettySize=auto;html=1;entryX=0;entryY=0.583;entryDx=0;entryDy=0;entryPerimeter=0;exitX=0.5;exitY=1;exitDx=0;exitDy=0;" edge="1" parent="1" source="gGMn3UYS-EvrmnC3Wc0F-10" target="gGMn3UYS-EvrmnC3Wc0F-23">
          <mxGeometry relative="1" as="geometry" />
        </mxCell>
        <mxCell id="gGMn3UYS-EvrmnC3Wc0F-10" value="Gegevens worden door HelloID verwerkt +&lt;br&gt;uniek id" style="rounded=0;whiteSpace=wrap;html=1;fillColor=#dae8fc;strokeColor=#6c8ebf;" vertex="1" parent="1">
          <mxGeometry x="610" y="320" width="160" height="60" as="geometry" />
        </mxCell>
        <mxCell id="gGMn3UYS-EvrmnC3Wc0F-12" value="AD account" style="rounded=0;whiteSpace=wrap;html=1;fillColor=#fff2cc;strokeColor=#d6b656;" vertex="1" parent="1">
          <mxGeometry x="820" y="320" width="160" height="60" as="geometry" />
        </mxCell>
        <mxCell id="gGMn3UYS-EvrmnC3Wc0F-15" value="Gegevens worden&lt;br&gt;samengevoegd aan ticket&lt;br&gt;status/voortgang te volgen" style="text;html=1;strokeColor=none;fillColor=none;align=left;verticalAlign=middle;whiteSpace=wrap;rounded=0;" vertex="1" parent="1">
          <mxGeometry x="690" y="260" width="150" height="20" as="geometry" />
        </mxCell>
        <mxCell id="gGMn3UYS-EvrmnC3Wc0F-19" value="Doel: direct bij opvoeren nieuwe medewerker, alle bekende gegevens en benodigdheden verwerken in de aanvraag&lt;br&gt;&lt;br&gt;* aandachtspunt" style="text;html=1;strokeColor=none;fillColor=none;align=left;verticalAlign=middle;whiteSpace=wrap;rounded=0;" vertex="1" parent="1">
          <mxGeometry x="30" y="50" width="210" height="50" as="geometry" />
        </mxCell>
        <mxCell id="gGMn3UYS-EvrmnC3Wc0F-28" style="edgeStyle=orthogonalEdgeStyle;rounded=0;orthogonalLoop=1;jettySize=auto;html=1;entryX=0;entryY=0.583;entryDx=0;entryDy=0;entryPerimeter=0;" edge="1" parent="1" target="gGMn3UYS-EvrmnC3Wc0F-27">
          <mxGeometry relative="1" as="geometry">
            <mxPoint x="190" y="220" as="sourcePoint" />
            <Array as="points">
              <mxPoint x="140" y="220" />
            </Array>
          </mxGeometry>
        </mxCell>
        <mxCell id="gGMn3UYS-EvrmnC3Wc0F-20" value="Je zou de nieuwe medewerker kunnen meenemen in het verzamelen van alle relevante gegevens" style="text;html=1;strokeColor=none;fillColor=none;align=center;verticalAlign=middle;whiteSpace=wrap;rounded=0;" vertex="1" parent="1">
          <mxGeometry x="50" y="170" width="220" height="30" as="geometry" />
        </mxCell>
        <mxCell id="gGMn3UYS-EvrmnC3Wc0F-23" value="email met gegevens naar betrokkenen" style="rounded=0;whiteSpace=wrap;html=1;fillColor=#fff2cc;strokeColor=#d6b656;" vertex="1" parent="1">
          <mxGeometry x="840" y="365" width="160" height="60" as="geometry" />
        </mxCell>
      </root>
    </mxGraphModel>
  </diagram>
</mxfile>
